<svg fill="#000000" xmlns="http://www.w3.org/2000/svg"  viewBox="0 0 30 30" width="30px" height="30px"><path d="M 15 3 C 8.3845336 3 3 8.3845336 3 15 C 3 21.615466 8.3845336 27 15 27 C 21.615466 27 27 21.615466 27 15 A 1.0001 1.0001 0 1 0 25 15 C 25 20.534534 20.534534 25 15 25 C 9.4654664 25 5 20.534534 5 15 C 5 9.4654664 9.4654664 5 15 5 C 17.511974 5 19.790481 5.9310235 21.544922 7.4550781 L 19 10 L 25 10 L 25 4 L 22.960938 6.0390625 C 20.840494 4.1553732 18.053851 3 15 3 z M 11.941406 11.347656 C 10.305406 11.347656 9.2505625 12.226516 9.2265625 13.603516 L 10.851562 13.603516 C 10.871562 13.051516 11.285391 12.685547 11.900391 12.685547 C 12.525391 12.685547 12.912109 13.002625 12.912109 13.515625 C 12.912109 14.028625 12.517016 14.365234 11.916016 14.365234 L 11.052734 14.365234 L 11.052734 15.601562 L 11.917969 15.601562 C 12.601969 15.601563 13.015625 15.932609 13.015625 16.474609 C 13.015625 17.002609 12.576406 17.363281 11.941406 17.363281 C 11.262406 17.363281 10.828687 17.031141 10.804688 16.494141 L 9.0957031 16.494141 C 9.1587031 17.876141 10.266109 18.775391 11.912109 18.775391 C 13.636109 18.775391 14.837891 17.885328 14.837891 16.611328 C 14.837891 15.703328 14.216141 15.065891 13.244141 14.962891 L 13.244141 14.869141 C 14.035141 14.722141 14.578125 14.082484 14.578125 13.271484 C 14.578125 12.133484 13.503406 11.347656 11.941406 11.347656 z M 18.917969 11.349609 C 17.101969 11.349609 15.958984 12.710922 15.958984 15.044922 C 15.958984 17.378922 17.086969 18.774391 18.917969 18.775391 C 20.743969 18.775391 21.876953 17.374781 21.876953 15.050781 C 21.876953 12.706781 20.729969 11.349609 18.917969 11.349609 z M 18.917969 12.726562 C 19.601969 12.726563 20.060547 13.496922 20.060547 15.044922 C 20.060547 16.602922 19.601969 17.398438 18.917969 17.398438 C 18.233969 17.398438 17.779297 16.602922 17.779297 15.044922 C 17.779297 13.496922 18.233969 12.726562 18.917969 12.726562 z"/></svg>